<svg width="142" height="116" viewBox="0 0 142 116" fill="none" xmlns="http://www.w3.org/2000/svg">
<path d="M142 38C142 36.8954 141.105 36 140 36H40C38.8954 36 38 36.8954 38 38V66C38 67.1046 38.8954 68 40 68H140C141.105 68 142 67.1046 142 66V38Z" fill="#9D4437"/>
<path d="M0 38C0 36.8954 0.895431 36 2 36H30C31.1046 36 32 36.8954 32 38V52V66C32 67.1046 31.1046 68 30 68H2C0.895431 68 0 67.1046 0 66V38Z" fill="#F1A238"/>
<path d="M110 2C110 0.895431 110.895 0 112 0H140C141.105 0 142 0.895431 142 2V16V30C142 31.1046 141.105 32 140 32H112C110.895 32 110 31.1046 110 30V2Z" fill="#F1A238"/>
<path d="M104 2C104 0.895431 103.105 0 102 0H2C0.895424 0 -7.62939e-06 0.895431 -7.62939e-06 2V30C-7.62939e-06 31.1046 0.895424 32 1.99999 32H102C103.105 32 104 31.1046 104 30V2Z" fill="#7F7C7B"/>
<path d="M16.7667 96.041V107H11.5212V96.041L1.2447 78.803H5.8662C6.3212 78.803 6.6787 78.9135 6.9387 79.1345C7.2117 79.3555 7.4392 79.635 7.6212 79.973L12.7887 89.3915C13.0877 89.9505 13.3477 90.4835 13.5687 90.9905C13.7897 91.4845 13.9912 91.972 14.1732 92.453C14.3422 91.959 14.5307 91.465 14.7387 90.971C14.9597 90.464 15.2197 89.9375 15.5187 89.3915L20.6472 79.973C20.7902 79.687 21.0047 79.4205 21.2907 79.1735C21.5767 78.9265 21.9407 78.803 22.3827 78.803H27.0237L16.7667 96.041ZM35.6707 86.681C37.1657 86.681 38.5177 86.9215 39.7267 87.4025C40.9487 87.8835 41.9887 88.566 42.8467 89.45C43.7047 90.334 44.3677 91.413 44.8357 92.687C45.3037 93.961 45.5377 95.3845 45.5377 96.9575C45.5377 98.5435 45.3037 99.9735 44.8357 101.247C44.3677 102.521 43.7047 103.607 42.8467 104.504C41.9887 105.401 40.9487 106.09 39.7267 106.571C38.5177 107.052 37.1657 107.293 35.6707 107.293C34.1757 107.293 32.8172 107.052 31.5952 106.571C30.3732 106.09 29.3267 105.401 28.4557 104.504C27.5977 103.607 26.9282 102.521 26.4472 101.247C25.9792 99.9735 25.7452 98.5435 25.7452 96.9575C25.7452 95.3845 25.9792 93.961 26.4472 92.687C26.9282 91.413 27.5977 90.334 28.4557 89.45C29.3267 88.566 30.3732 87.8835 31.5952 87.4025C32.8172 86.9215 34.1757 86.681 35.6707 86.681ZM35.6707 103.587C37.3347 103.587 38.5632 103.028 39.3562 101.91C40.1622 100.792 40.5652 99.1545 40.5652 96.9965C40.5652 94.8385 40.1622 93.194 39.3562 92.063C38.5632 90.932 37.3347 90.3665 35.6707 90.3665C33.9807 90.3665 32.7327 90.9385 31.9267 92.0825C31.1207 93.2135 30.7177 94.8515 30.7177 96.9965C30.7177 99.1415 31.1207 100.779 31.9267 101.91C32.7327 103.028 33.9807 103.587 35.6707 103.587ZM61.9512 90.893C61.8212 91.101 61.6847 91.2505 61.5417 91.3415C61.3987 91.4195 61.2167 91.4585 60.9957 91.4585C60.7617 91.4585 60.5082 91.3935 60.2352 91.2635C59.9752 91.1335 59.6697 90.9905 59.3187 90.8345C58.9677 90.6655 58.5647 90.516 58.1097 90.386C57.6677 90.256 57.1412 90.191 56.5302 90.191C55.5812 90.191 54.8337 90.3925 54.2877 90.7955C53.7417 91.1985 53.4687 91.725 53.4687 92.375C53.4687 92.804 53.6052 93.168 53.8782 93.467C54.1642 93.753 54.5347 94.0065 54.9897 94.2275C55.4577 94.4485 55.9842 94.65 56.5692 94.832C57.1542 95.001 57.7522 95.1895 58.3632 95.3975C58.9742 95.6055 59.5722 95.846 60.1572 96.119C60.7422 96.379 61.2622 96.717 61.7172 97.133C62.1852 97.536 62.5557 98.0235 62.8287 98.5955C63.1147 99.1675 63.2577 99.8565 63.2577 100.662C63.2577 101.624 63.0822 102.515 62.7312 103.334C62.3802 104.14 61.8667 104.842 61.1907 105.44C60.5147 106.025 59.6762 106.486 58.6752 106.824C57.6872 107.15 56.5497 107.312 55.2627 107.312C54.5737 107.312 53.8977 107.247 53.2347 107.117C52.5847 107 51.9542 106.831 51.3432 106.61C50.7452 106.389 50.1862 106.129 49.6662 105.83C49.1592 105.531 48.7107 105.206 48.3207 104.855L49.4322 103.022C49.5752 102.801 49.7442 102.632 49.9392 102.515C50.1342 102.398 50.3812 102.339 50.6802 102.339C50.9792 102.339 51.2587 102.424 51.5187 102.593C51.7917 102.762 52.1037 102.944 52.4547 103.139C52.8057 103.334 53.2152 103.516 53.6832 103.685C54.1642 103.854 54.7687 103.938 55.4967 103.938C56.0687 103.938 56.5562 103.873 56.9592 103.743C57.3752 103.6 57.7132 103.418 57.9732 103.197C58.2462 102.976 58.4412 102.723 58.5582 102.437C58.6882 102.138 58.7532 101.832 58.7532 101.52C58.7532 101.052 58.6102 100.669 58.3242 100.37C58.0512 100.071 57.6807 99.811 57.2127 99.59C56.7577 99.369 56.2312 99.174 55.6332 99.005C55.0482 98.823 54.4437 98.628 53.8197 98.42C53.2087 98.212 52.6042 97.9715 52.0062 97.6985C51.4212 97.4125 50.8947 97.055 50.4267 96.626C49.9717 96.197 49.6012 95.6705 49.3152 95.0465C49.0422 94.4225 48.9057 93.6685 48.9057 92.7845C48.9057 91.9655 49.0682 91.1855 49.3932 90.4445C49.7182 89.7035 50.1927 89.06 50.8167 88.514C51.4537 87.955 52.2402 87.513 53.1762 87.188C54.1252 86.85 55.2172 86.681 56.4522 86.681C57.8302 86.681 59.0847 86.9085 60.2157 87.3635C61.3467 87.8185 62.2892 88.4165 63.0432 89.1575L61.9512 90.893Z" fill="#7F7C7B"/>
<path d="M68.1532 107V78.803H77.8837C79.7297 78.803 81.3027 78.9785 82.6027 79.3295C83.9157 79.6805 84.9882 80.181 85.8202 80.831C86.6652 81.481 87.2827 82.2675 87.6727 83.1905C88.0627 84.1135 88.2577 85.1535 88.2577 86.3105C88.2577 86.9735 88.1602 87.6105 87.9652 88.2215C87.7702 88.8195 87.4647 89.385 87.0487 89.918C86.6457 90.438 86.1257 90.9125 85.4887 91.3415C84.8647 91.7705 84.1172 92.1345 83.2462 92.4335C87.1202 93.3045 89.0572 95.3975 89.0572 98.7125C89.0572 99.9085 88.8297 101.013 88.3747 102.027C87.9197 103.041 87.2567 103.919 86.3857 104.66C85.5147 105.388 84.4422 105.96 83.1682 106.376C81.8942 106.792 80.4382 107 78.8002 107H68.1532ZM73.3987 94.637V102.905H78.7222C79.6972 102.905 80.5097 102.788 81.1597 102.554C81.8227 102.32 82.3492 102.008 82.7392 101.618C83.1422 101.228 83.4282 100.773 83.5972 100.253C83.7792 99.733 83.8702 99.1805 83.8702 98.5955C83.8702 97.9845 83.7727 97.4385 83.5777 96.9575C83.3827 96.4635 83.0772 96.0475 82.6612 95.7095C82.2452 95.3585 81.7122 95.092 81.0622 94.91C80.4122 94.728 79.6257 94.637 78.7027 94.637H73.3987ZM73.3987 91.01H77.5912C79.3722 91.01 80.7242 90.685 81.6472 90.035C82.5702 89.385 83.0317 88.3515 83.0317 86.9345C83.0317 85.4655 82.6157 84.419 81.7837 83.795C80.9517 83.171 79.6517 82.859 77.8837 82.859H73.3987V91.01ZM94.0635 107V86.993H96.891C97.385 86.993 97.7295 87.084 97.9245 87.266C98.1195 87.448 98.2495 87.76 98.3145 88.202L98.607 90.62C99.322 89.385 100.16 88.41 101.122 87.695C102.084 86.98 103.163 86.6225 104.359 86.6225C105.347 86.6225 106.166 86.85 106.816 87.305L106.192 90.9125C106.153 91.1465 106.069 91.3155 105.939 91.4195C105.809 91.5105 105.633 91.556 105.412 91.556C105.217 91.556 104.951 91.5105 104.613 91.4195C104.275 91.3285 103.826 91.283 103.267 91.283C102.266 91.283 101.408 91.5625 100.693 92.1215C99.9785 92.6675 99.374 93.4735 98.88 94.5395V107H94.0635ZM115.892 86.993V107H111.075V86.993H115.892ZM116.613 81.1625C116.613 81.5785 116.529 81.9685 116.36 82.3325C116.191 82.6965 115.963 83.015 115.677 83.288C115.404 83.561 115.079 83.782 114.702 83.951C114.325 84.107 113.922 84.185 113.493 84.185C113.077 84.185 112.681 84.107 112.304 83.951C111.94 83.782 111.621 83.561 111.348 83.288C111.075 83.015 110.854 82.6965 110.685 82.3325C110.529 81.9685 110.451 81.5785 110.451 81.1625C110.451 80.7335 110.529 80.3305 110.685 79.9535C110.854 79.5765 111.075 79.2515 111.348 78.9785C111.621 78.7055 111.94 78.491 112.304 78.335C112.681 78.166 113.077 78.0815 113.493 78.0815C113.922 78.0815 114.325 78.166 114.702 78.335C115.079 78.491 115.404 78.7055 115.677 78.9785C115.963 79.2515 116.191 79.5765 116.36 79.9535C116.529 80.3305 116.613 80.7335 116.613 81.1625ZM126.87 96.6845L120.298 86.993H124.939C125.29 86.993 125.55 87.045 125.719 87.149C125.888 87.24 126.038 87.396 126.168 87.617L130.36 94.3055C130.425 94.0845 130.503 93.8635 130.594 93.6425C130.698 93.4215 130.822 93.2005 130.965 92.9795L134.338 87.7145C134.494 87.4675 134.657 87.2855 134.826 87.1685C134.995 87.0515 135.203 86.993 135.45 86.993H139.876L133.285 96.47L140.149 107H135.508C135.157 107 134.871 106.909 134.65 106.727C134.442 106.545 134.267 106.337 134.124 106.103L129.873 99.1415C129.756 99.6095 129.593 99.9995 129.385 100.311L125.641 106.103C125.498 106.324 125.323 106.532 125.115 106.727C124.907 106.909 124.647 107 124.335 107H120.025L126.87 96.6845Z" fill="#9D4437"/>
</svg>
