<svg width="16" height="16" viewBox="0 0 16 16" fill="none" xmlns="http://www.w3.org/2000/svg">
<path d="M7.33334 6.00004H8.66668V4.66671H7.33334M8.00001 13.3334C5.06001 13.3334 2.66668 10.94 2.66668 8.00004C2.66668 5.06004 5.06001 2.66671 8.00001 2.66671C10.94 2.66671 13.3333 5.06004 13.3333 8.00004C13.3333 10.94 10.94 13.3334 8.00001 13.3334ZM8.00001 1.33337C7.12453 1.33337 6.25762 1.50581 5.44879 1.84084C4.63995 2.17588 3.90502 2.66694 3.28596 3.286C2.03572 4.53624 1.33334 6.23193 1.33334 8.00004C1.33334 9.76815 2.03572 11.4638 3.28596 12.7141C3.90502 13.3331 4.63995 13.8242 5.44879 14.1592C6.25762 14.4943 7.12453 14.6667 8.00001 14.6667C9.76812 14.6667 11.4638 13.9643 12.7141 12.7141C13.9643 11.4638 14.6667 9.76815 14.6667 8.00004C14.6667 7.12456 14.4942 6.25765 14.1592 5.44882C13.8242 4.63998 13.3331 3.90505 12.7141 3.286C12.095 2.66694 11.3601 2.17588 10.5512 1.84084C9.7424 1.50581 8.87549 1.33337 8.00001 1.33337ZM7.33334 11.3334H8.66668V7.33337H7.33334V11.3334Z" fill="#9D4437"/>
</svg>
