<svg width="33" height="21" viewBox="0 0 33 21" fill="none" xmlns="http://www.w3.org/2000/svg">
<path d="M18.9926 18.432L19.002 16.7685L20.4954 16.7654L20.5031 15.7711L19.0044 15.7694L19.0076 14.4311L21.629 14.447L21.6314 13.4479L19.01 13.432L19.0132 12.1031L20.5119 12.1048L20.5143 11.1057L19.0157 11.104L19.0189 9.76567L21.6402 9.78157L21.6427 8.78251L19.0213 8.76661L19.0245 7.43768L20.5179 7.44405L20.5256 6.4403L19.027 6.43862L19.0302 5.10026L21.6462 5.12085L21.6539 4.1171L19.0326 4.1012L19.0313 2.43766L23.5326 2.45686L23.4939 18.4512L18.9926 18.432Z" fill="#9D4437"/>
<path d="M16.7203 17.1309L15.9824 16.3088L14.3002 17.515L14.6276 14.8483C14.7677 13.7152 14.6635 12.5686 14.3208 11.4705L13.593 9.13042C13.2906 8.16191 13.1986 7.15057 13.3222 6.15113L13.51 4.62134L12.3376 4.50639L12.1499 6.03513C12.0098 7.16825 12.1139 8.31486 12.4567 9.41294L13.1845 11.7531C13.4869 12.7216 13.5788 13.7329 13.4553 14.7323L13.128 17.399L11.7784 15.8956L10.8585 16.5561L13.4678 19.463L16.7203 17.1309Z" fill="#9D4437"/>
<path d="M6.68342 11.9051L5.94549 11.083L4.2633 12.2892L4.36459 11.4641C4.48239 10.5066 4.42655 9.53847 4.19923 8.59693L4.05838 8.0142C3.85765 7.18351 3.80826 6.32931 3.9121 5.48456L4.13095 3.70172L2.95857 3.58676L2.73972 5.3696C2.62193 6.32704 2.67776 7.2952 2.90508 8.23674L3.04594 8.81947C3.24666 9.65016 3.29605 10.5044 3.19221 11.3491L3.09093 12.1743L1.74135 10.6708L0.821547 11.3303L3.43094 14.2372L6.68342 11.9051Z" fill="#9D4437"/>
<path d="M11.7018 14.518L10.9639 13.6959L9.2817 14.9021L9.49199 13.1889C9.62381 12.1208 9.53881 11.0401 9.24108 9.99897L8.84219 8.59935C8.5796 7.68079 8.5047 6.7274 8.6211 5.78506L8.82039 4.16149L7.64802 4.04654L7.44872 5.67011C7.31699 6.73809 7.40202 7.81854 7.6997 8.85953L8.09859 10.2592C8.36118 11.1777 8.43607 12.1311 8.31968 13.0734L8.10939 14.7866L6.75975 13.2837L5.83994 13.9432L8.44933 16.8501L11.7018 14.518Z" fill="#9D4437"/>
</svg>
