<svg width="32" height="32" viewBox="0 0 32 32" fill="none" xmlns="http://www.w3.org/2000/svg">
<path d="M17.1532 3.99998L29.8545 26C29.9715 26.2027 30.0331 26.4326 30.0331 26.6666C30.0331 26.9007 29.9715 27.1306 29.8545 27.3333C29.7375 27.536 29.5692 27.7043 29.3665 27.8213C29.1638 27.9384 28.9339 28 28.6998 28H3.29717C3.06312 28 2.8332 27.9384 2.63051 27.8213C2.42782 27.7043 2.25951 27.536 2.14249 27.3333C2.02547 27.1306 1.96387 26.9007 1.96387 26.6666C1.96387 26.4326 2.02548 26.2027 2.1425 26L14.8438 3.99998C14.9609 3.79731 15.1292 3.629 15.3319 3.51199C15.5345 3.39498 15.7645 3.33337 15.9985 3.33337C16.2325 3.33337 16.4625 3.39498 16.6651 3.51199C16.8678 3.629 17.0361 3.79731 17.1532 3.99998ZM5.6065 25.3333H26.3905L15.9998 7.33332L5.6065 25.3333ZM14.6652 21.3333H17.3318V24H14.6652V21.3333ZM14.6652 12H17.3318V18.6666H14.6652V12Z" fill="#FBFBFB"/>
</svg>
