<svg width="16" height="16" viewBox="0 0 16 16" fill="none" xmlns="http://www.w3.org/2000/svg">
<path d="M12.6667 4V3.33333C12.6667 2.97971 12.5262 2.64057 12.2761 2.39052C12.0261 2.14048 11.687 2 11.3333 2H10C9.64638 2 9.30724 2.14048 9.05719 2.39052C8.80714 2.64057 8.66667 2.97971 8.66667 3.33333V4H7.33333V3.33333C7.33333 2.97971 7.19286 2.64057 6.94281 2.39052C6.69276 2.14048 6.35362 2 6 2H4.66667C4.31304 2 3.97391 2.14048 3.72386 2.39052C3.47381 2.64057 3.33333 2.97971 3.33333 3.33333V4H2V13.3333H14V4M12.6667 12H3.33333V5.33333H12.6667V12Z" fill="#FBFBFB"/>
</svg>
