<svg width="32" height="33" viewBox="0 0 32 33" fill="none" xmlns="http://www.w3.org/2000/svg">
<path d="M27.9999 23.1667H31.9999L26.6666 28.5L21.3333 23.1667H25.3333V4.5H27.9999V23.1667ZM10.6666 21.8333H14.6666V17.8333H10.6666V21.8333ZM17.3333 7.16667H15.9999V4.5H13.3333V7.16667H7.99992V4.5H5.33325V7.16667H3.99992C2.51992 7.16667 1.33325 8.35333 1.33325 9.83333V24.5C1.33325 25.98 2.51992 27.1667 3.99992 27.1667H17.3333C18.8133 27.1667 19.9999 25.98 19.9999 24.5V9.83333C19.9999 8.35333 18.8133 7.16667 17.3333 7.16667ZM3.99992 24.5V15.1667H17.3333V24.5H3.99992Z" fill="#9D4437"/>
</svg>
