<svg width="32" height="33" viewBox="0 0 32 33" fill="none" xmlns="http://www.w3.org/2000/svg">
<path d="M25.3334 9.83333H21.3334L26.6667 4.5L32 9.83333H28V28.5H25.3334V9.83333ZM10.6667 21.8333H14.6667V17.8333H10.6667V21.8333ZM17.3334 7.16667H16V4.5H13.3334V7.16667H8.00004V4.5H5.33337V7.16667H4.00004C2.52004 7.16667 1.33337 8.35333 1.33337 9.83333V24.5C1.33337 25.98 2.52004 27.1667 4.00004 27.1667H17.3334C18.8134 27.1667 20 25.98 20 24.5V9.83333C20 8.35333 18.8134 7.16667 17.3334 7.16667ZM4.00004 24.5V15.1667H17.3334V24.5H4.00004Z" fill="#9D4437"/>
</svg>
