<svg width="32" height="32" viewBox="0 0 32 32" fill="none" xmlns="http://www.w3.org/2000/svg">
<path d="M16.0003 5.33335C13.1713 5.33335 10.4582 6.45716 8.45785 8.45755C6.45747 10.4579 5.33366 13.171 5.33366 16C5.33366 18.829 6.45747 21.5421 8.45785 23.5425C10.4582 25.5429 13.1713 26.6667 16.0003 26.6667C18.8293 26.6667 21.5424 25.5429 23.5428 23.5425C25.5432 21.5421 26.667 18.829 26.667 16C26.667 13.171 25.5432 10.4579 23.5428 8.45755C21.5424 6.45716 18.8293 5.33335 16.0003 5.33335ZM2.66699 16C2.66699 8.63602 8.63633 2.66669 16.0003 2.66669C23.3643 2.66669 29.3337 8.63602 29.3337 16C29.3337 23.364 23.3643 29.3334 16.0003 29.3334C8.63633 29.3334 2.66699 23.364 2.66699 16ZM10.391 10.3907C10.641 10.1407 10.9801 10.0003 11.3337 10.0003C11.6872 10.0003 12.0263 10.1407 12.2763 10.3907L16.0003 14.1147L19.7243 10.3907C19.8473 10.2633 19.9944 10.1618 20.1571 10.0919C20.3198 10.022 20.4948 9.98522 20.6718 9.98369C20.8488 9.98215 21.0244 10.0159 21.1883 10.0829C21.3521 10.15 21.501 10.249 21.6262 10.3742C21.7514 10.4994 21.8504 10.6482 21.9174 10.8121C21.9845 10.9759 22.0182 11.1515 22.0167 11.3286C22.0151 11.5056 21.9783 11.6806 21.9085 11.8432C21.8386 12.0059 21.737 12.153 21.6097 12.276L17.8857 16L21.6097 19.724C21.8525 19.9755 21.9869 20.3123 21.9839 20.6619C21.9809 21.0115 21.8406 21.3459 21.5934 21.5931C21.3462 21.8403 21.0118 21.9805 20.6622 21.9836C20.3126 21.9866 19.9758 21.8522 19.7243 21.6094L16.0003 17.8854L12.2763 21.6094C12.0249 21.8522 11.6881 21.9866 11.3385 21.9836C10.9889 21.9805 10.6544 21.8403 10.4072 21.5931C10.16 21.3459 10.0198 21.0115 10.0168 20.6619C10.0137 20.3123 10.1481 19.9755 10.391 19.724L14.115 16L10.391 12.276C10.141 12.026 10.0006 11.6869 10.0006 11.3334C10.0006 10.9798 10.141 10.6407 10.391 10.3907Z" fill="#F5F5F5"/>
</svg>
