<svg width="24" height="24" viewBox="0 0 24 24" fill="none" xmlns="http://www.w3.org/2000/svg">
<path d="M11.2 11.9999C11.2 11.0535 10.8875 10.2455 10.2625 9.57584C9.6375 8.9062 8.88333 8.57138 8 8.57138C7.11667 8.57138 6.3625 8.9062 5.7375 9.57584C5.1125 10.2455 4.8 11.0535 4.8 11.9999C4.8 12.9464 5.1125 13.7544 5.7375 14.4241C6.3625 15.0937 7.11667 15.4285 8 15.4285C8.88333 15.4285 9.6375 15.0937 10.2625 14.4241C10.8875 13.7544 11.2 12.9464 11.2 11.9999ZM20.8 18.8571C20.8 18.3928 20.6417 17.991 20.325 17.6517C20.0083 17.3124 19.6333 17.1428 19.2 17.1428C18.7667 17.1428 18.3917 17.3124 18.075 17.6517C17.7583 17.991 17.6 18.3928 17.6 18.8571C17.6 19.3303 17.7563 19.7343 18.0688 20.0691C18.3813 20.404 18.7583 20.5714 19.2 20.5714C19.6417 20.5714 20.0188 20.404 20.3313 20.0691C20.6438 19.7343 20.8 19.3303 20.8 18.8571ZM20.8 5.14281C20.8 4.67852 20.6417 4.27673 20.325 3.93745C20.0083 3.59816 19.6333 3.42852 19.2 3.42852C18.7667 3.42852 18.3917 3.59816 18.075 3.93745C17.7583 4.27673 17.6 4.67852 17.6 5.14281C17.6 5.61602 17.7563 6.02004 18.0688 6.35486C18.3813 6.68968 18.7583 6.85709 19.2 6.85709C19.6417 6.85709 20.0188 6.68968 20.3313 6.35486C20.6438 6.02004 20.8 5.61602 20.8 5.14281ZM16 10.7812V13.2589C16 13.3482 15.9708 13.4352 15.9125 13.52C15.8542 13.6049 15.7875 13.6517 15.7125 13.6607L13.775 13.9821C13.6833 14.2946 13.55 14.6339 13.375 14.9999C13.6583 15.4285 14.0333 15.9419 14.5 16.5401C14.5583 16.6383 14.5875 16.7276 14.5875 16.808C14.5875 16.9151 14.5583 16.9999 14.5 17.0624C14.3083 17.3303 13.9646 17.7299 13.4688 18.2611C12.9729 18.7924 12.6458 19.058 12.4875 19.058C12.3958 19.058 12.3083 19.0267 12.225 18.9642L10.7875 17.7589C10.4792 17.9285 10.1583 18.0669 9.825 18.1741C9.73333 19.1383 9.6375 19.8303 9.5375 20.2499C9.47917 20.4642 9.35417 20.5714 9.1625 20.5714H6.8375C6.74583 20.5714 6.6625 20.5379 6.5875 20.4709C6.5125 20.404 6.47083 20.3258 6.4625 20.2366L6.175 18.1874C5.89167 18.0982 5.57917 17.9598 5.2375 17.7723L3.7625 18.9642C3.70417 19.0267 3.62083 19.058 3.5125 19.058C3.42083 19.058 3.33333 19.0223 3.25 18.9508C2.05 17.7633 1.45 17.0491 1.45 16.808C1.45 16.7276 1.47917 16.6428 1.5375 16.5535C1.62083 16.4285 1.79167 16.1919 2.05 15.8437C2.30833 15.4955 2.50417 15.2232 2.6375 15.0267C2.44583 14.6339 2.3 14.2678 2.2 13.9285L0.3 13.6071C0.216667 13.5982 0.145833 13.5558 0.0875 13.4799C0.0291667 13.404 0 13.3169 0 13.2187V10.741C0 10.6517 0.0291667 10.5647 0.0875 10.4799C0.145833 10.395 0.2125 10.3482 0.2875 10.3392L2.225 10.0178C2.31667 9.70531 2.45 9.36602 2.625 8.99995C2.34167 8.57138 1.96667 8.05798 1.5 7.45977C1.44167 7.36156 1.4125 7.27227 1.4125 7.19191C1.4125 7.08477 1.44167 6.99548 1.5 6.92406C1.68333 6.6562 2.025 6.25888 2.525 5.73209C3.025 5.20531 3.35417 4.94191 3.5125 4.94191C3.60417 4.94191 3.69167 4.97316 3.775 5.03566L5.2125 6.24102C5.49583 6.08031 5.81667 5.93745 6.175 5.81245C6.26667 4.84816 6.3625 4.16066 6.4625 3.74995C6.52083 3.53566 6.64583 3.42852 6.8375 3.42852H9.1625C9.25417 3.42852 9.3375 3.462 9.4125 3.52897C9.4875 3.59593 9.52917 3.67405 9.5375 3.76334L9.825 5.81245C10.1083 5.90173 10.4208 6.04013 10.7625 6.22763L12.2375 5.03566C12.3042 4.97316 12.3875 4.94191 12.4875 4.94191C12.5792 4.94191 12.6667 4.97763 12.75 5.04906C13.95 6.23655 14.55 6.95084 14.55 7.19191C14.55 7.26334 14.5208 7.34816 14.4625 7.44638C14.3625 7.58923 14.1875 7.83031 13.9375 8.16959C13.6875 8.50888 13.5 8.77673 13.375 8.97316C13.5667 9.40173 13.7083 9.76781 13.8 10.0714L15.7 10.3794C15.7833 10.3973 15.8542 10.4441 15.9125 10.52C15.9708 10.5959 16 10.683 16 10.7812ZM24 17.9196V19.7946C24 19.9374 23.3792 20.0758 22.1375 20.2098C22.0375 20.4508 21.9125 20.683 21.7625 20.9062C22.1875 21.9151 22.4 22.5312 22.4 22.7544C22.4 22.7901 22.3833 22.8214 22.35 22.8482C21.3333 23.4821 20.8167 23.7991 20.8 23.7991C20.7333 23.7991 20.5417 23.5892 20.225 23.1696C19.9083 22.7499 19.6917 22.4464 19.575 22.2589C19.4083 22.2767 19.2833 22.2857 19.2 22.2857C19.1167 22.2857 18.9917 22.2767 18.825 22.2589C18.7083 22.4464 18.4917 22.7499 18.175 23.1696C17.8583 23.5892 17.6667 23.7991 17.6 23.7991C17.5833 23.7991 17.0667 23.4821 16.05 22.8482C16.0167 22.8214 16 22.7901 16 22.7544C16 22.5312 16.2125 21.9151 16.6375 20.9062C16.4875 20.683 16.3625 20.4508 16.2625 20.2098C15.0208 20.0758 14.4 19.9374 14.4 19.7946V17.9196C14.4 17.7767 15.0208 17.6383 16.2625 17.5044C16.3708 17.2455 16.4958 17.0133 16.6375 16.808C16.2125 15.7991 16 15.183 16 14.9598C16 14.9241 16.0167 14.8928 16.05 14.866C16.0833 14.8482 16.2292 14.7589 16.4875 14.5982C16.7458 14.4374 16.9917 14.2857 17.225 14.1428C17.4583 13.9999 17.5833 13.9285 17.6 13.9285C17.6667 13.9285 17.8583 14.1361 18.175 14.5513C18.4917 14.9665 18.7083 15.2678 18.825 15.4553C18.9917 15.4374 19.1167 15.4285 19.2 15.4285C19.2833 15.4285 19.4083 15.4374 19.575 15.4553C20 14.8214 20.3833 14.3214 20.725 13.9553L20.8 13.9285C20.8333 13.9285 21.35 14.241 22.35 14.866C22.3833 14.8928 22.4 14.9241 22.4 14.9598C22.4 15.183 22.1875 15.7991 21.7625 16.808C21.9042 17.0133 22.0292 17.2455 22.1375 17.5044C23.3792 17.6383 24 17.7767 24 17.9196ZM24 4.2053V6.08031C24 6.22316 23.3792 6.36156 22.1375 6.49548C22.0375 6.73656 21.9125 6.9687 21.7625 7.19191C22.1875 8.20084 22.4 8.81691 22.4 9.04013C22.4 9.07584 22.3833 9.10709 22.35 9.13388C21.3333 9.76781 20.8167 10.0848 20.8 10.0848C20.7333 10.0848 20.5417 9.87495 20.225 9.45531C19.9083 9.03566 19.6917 8.73209 19.575 8.54459C19.4083 8.56245 19.2833 8.57138 19.2 8.57138C19.1167 8.57138 18.9917 8.56245 18.825 8.54459C18.7083 8.73209 18.4917 9.03566 18.175 9.45531C17.8583 9.87495 17.6667 10.0848 17.6 10.0848C17.5833 10.0848 17.0667 9.76781 16.05 9.13388C16.0167 9.10709 16 9.07584 16 9.04013C16 8.81691 16.2125 8.20084 16.6375 7.19191C16.4875 6.9687 16.3625 6.73656 16.2625 6.49548C15.0208 6.36156 14.4 6.22316 14.4 6.08031V4.2053C14.4 4.06245 15.0208 3.92405 16.2625 3.79013C16.3708 3.5312 16.4958 3.29905 16.6375 3.0937C16.2125 2.08477 16 1.4687 16 1.24548C16 1.20977 16.0167 1.17852 16.05 1.15173C16.0833 1.13388 16.2292 1.04459 16.4875 0.883876C16.7458 0.723162 16.9917 0.571376 17.225 0.428519C17.4583 0.285662 17.5833 0.214233 17.6 0.214233C17.6667 0.214233 17.8583 0.421823 18.175 0.837001C18.4917 1.25218 18.7083 1.55352 18.825 1.74102C18.9917 1.72316 19.1167 1.71423 19.2 1.71423C19.2833 1.71423 19.4083 1.72316 19.575 1.74102C20 1.10709 20.3833 0.607091 20.725 0.241019L20.8 0.214233C20.8333 0.214233 21.35 0.526733 22.35 1.15173C22.3833 1.17852 22.4 1.20977 22.4 1.24548C22.4 1.4687 22.1875 2.08477 21.7625 3.0937C21.9042 3.29905 22.0292 3.5312 22.1375 3.79013C23.3792 3.92405 24 4.06245 24 4.2053Z" fill="#565150"/>
</svg>
