<svg width="136" height="30" viewBox="0 0 136 30" fill="none" xmlns="http://www.w3.org/2000/svg">
<path d="M40.4999 17.7058C40.4999 16.6012 39.6044 15.7058 38.4999 15.7058H13.2041C12.0995 15.7058 11.2041 16.6012 11.2041 17.7058V24.9999C11.2041 26.1045 12.0995 26.9999 13.2041 26.9999H38.4999C39.6044 26.9999 40.4999 26.1045 40.4999 24.9999V17.7058Z" fill="#9D4437"/>
<path d="M0.5 17.7058C0.5 16.6012 1.39543 15.7058 2.5 15.7058H7.51409C8.61866 15.7058 9.51408 16.6012 9.51408 17.7058V21.3529V24.9999C9.51408 26.1045 8.61865 26.9999 7.51408 26.9999H2.5C1.39543 26.9999 0.5 26.1045 0.5 24.9999V17.7058Z" fill="#F1A238"/>
<path d="M31.4858 5C31.4858 3.89543 32.3812 3 33.4858 3H38.4999C39.6045 3 40.4999 3.89543 40.4999 5V8.64706V12.2941C40.4999 13.3987 39.6045 14.2941 38.4999 14.2941H33.4858C32.3812 14.2941 31.4858 13.3987 31.4858 12.2941V5Z" fill="#F1A238"/>
<path d="M29.7957 5C29.7957 3.89543 28.9002 3 27.7957 3H2.4999C1.39533 3 0.499903 3.89543 0.499903 5V12.2941C0.499903 13.3987 1.39533 14.2941 2.4999 14.2941H27.7957C28.9002 14.2941 29.7957 13.3987 29.7957 12.2941V5Z" fill="#7F7C7B"/>
<path d="M58.3625 17.975V25H55V17.975L48.4125 6.925H51.375C51.6667 6.925 51.8958 6.99583 52.0625 7.1375C52.2375 7.27917 52.3833 7.45833 52.5 7.675L55.8125 13.7125C56.0042 14.0708 56.1708 14.4125 56.3125 14.7375C56.4542 15.0542 56.5833 15.3667 56.7 15.675C56.8083 15.3583 56.9292 15.0417 57.0625 14.725C57.2042 14.4 57.3708 14.0625 57.5625 13.7125L60.85 7.675C60.9417 7.49167 61.0792 7.32083 61.2625 7.1625C61.4458 7.00417 61.6792 6.925 61.9625 6.925H64.9375L58.3625 17.975ZM69.9805 11.975C70.9388 11.975 71.8055 12.1292 72.5805 12.4375C73.3638 12.7458 74.0305 13.1833 74.5805 13.75C75.1305 14.3167 75.5555 15.0083 75.8555 15.825C76.1555 16.6417 76.3055 17.5542 76.3055 18.5625C76.3055 19.5792 76.1555 20.4958 75.8555 21.3125C75.5555 22.1292 75.1305 22.825 74.5805 23.4C74.0305 23.975 73.3638 24.4167 72.5805 24.725C71.8055 25.0333 70.9388 25.1875 69.9805 25.1875C69.0221 25.1875 68.1513 25.0333 67.368 24.725C66.5846 24.4167 65.9138 23.975 65.3555 23.4C64.8055 22.825 64.3763 22.1292 64.068 21.3125C63.768 20.4958 63.618 19.5792 63.618 18.5625C63.618 17.5542 63.768 16.6417 64.068 15.825C64.3763 15.0083 64.8055 14.3167 65.3555 13.75C65.9138 13.1833 66.5846 12.7458 67.368 12.4375C68.1513 12.1292 69.0221 11.975 69.9805 11.975ZM69.9805 22.8125C71.0471 22.8125 71.8346 22.4542 72.343 21.7375C72.8596 21.0208 73.118 19.9708 73.118 18.5875C73.118 17.2042 72.8596 16.15 72.343 15.425C71.8346 14.7 71.0471 14.3375 69.9805 14.3375C68.8971 14.3375 68.0971 14.7042 67.5805 15.4375C67.0638 16.1625 66.8055 17.2125 66.8055 18.5875C66.8055 19.9625 67.0638 21.0125 67.5805 21.7375C68.0971 22.4542 68.8971 22.8125 69.9805 22.8125ZM86.327 14.675C86.2436 14.8083 86.1561 14.9042 86.0645 14.9625C85.9728 15.0125 85.8561 15.0375 85.7145 15.0375C85.5645 15.0375 85.402 14.9958 85.227 14.9125C85.0603 14.8292 84.8645 14.7375 84.6395 14.6375C84.4145 14.5292 84.1561 14.4333 83.8645 14.35C83.5811 14.2667 83.2436 14.225 82.852 14.225C82.2436 14.225 81.7645 14.3542 81.4145 14.6125C81.0645 14.8708 80.8895 15.2083 80.8895 15.625C80.8895 15.9 80.977 16.1333 81.152 16.325C81.3353 16.5083 81.5728 16.6708 81.8645 16.8125C82.1645 16.9542 82.502 17.0833 82.877 17.2C83.252 17.3083 83.6353 17.4292 84.027 17.5625C84.4186 17.6958 84.802 17.85 85.177 18.025C85.552 18.1917 85.8853 18.4083 86.177 18.675C86.477 18.9333 86.7145 19.2458 86.8895 19.6125C87.0728 19.9792 87.1645 20.4208 87.1645 20.9375C87.1645 21.5542 87.052 22.125 86.827 22.65C86.602 23.1667 86.2728 23.6167 85.8395 24C85.4061 24.375 84.8686 24.6708 84.227 24.8875C83.5936 25.0958 82.8645 25.2 82.0395 25.2C81.5978 25.2 81.1645 25.1583 80.7395 25.075C80.3228 25 79.9186 24.8917 79.527 24.75C79.1436 24.6083 78.7853 24.4417 78.452 24.25C78.127 24.0583 77.8395 23.85 77.5895 23.625L78.302 22.45C78.3936 22.3083 78.502 22.2 78.627 22.125C78.752 22.05 78.9103 22.0125 79.102 22.0125C79.2936 22.0125 79.4728 22.0667 79.6395 22.175C79.8145 22.2833 80.0145 22.4 80.2395 22.525C80.4645 22.65 80.727 22.7667 81.027 22.875C81.3353 22.9833 81.7228 23.0375 82.1895 23.0375C82.5561 23.0375 82.8686 22.9958 83.127 22.9125C83.3936 22.8208 83.6103 22.7042 83.777 22.5625C83.952 22.4208 84.077 22.2583 84.152 22.075C84.2353 21.8833 84.277 21.6875 84.277 21.4875C84.277 21.1875 84.1853 20.9417 84.002 20.75C83.827 20.5583 83.5895 20.3917 83.2895 20.25C82.9978 20.1083 82.6603 19.9833 82.277 19.875C81.902 19.7583 81.5145 19.6333 81.1145 19.5C80.7228 19.3667 80.3353 19.2125 79.952 19.0375C79.577 18.8542 79.2395 18.625 78.9395 18.35C78.6478 18.075 78.4103 17.7375 78.227 17.3375C78.052 16.9375 77.9645 16.4542 77.9645 15.8875C77.9645 15.3625 78.0686 14.8625 78.277 14.3875C78.4853 13.9125 78.7895 13.5 79.1895 13.15C79.5978 12.7917 80.102 12.5083 80.702 12.3C81.3103 12.0833 82.0103 11.975 82.802 11.975C83.6853 11.975 84.4895 12.1208 85.2145 12.4125C85.9395 12.7042 86.5436 13.0875 87.027 13.5625L86.327 14.675Z" fill="#7F7C7B"/>
<path d="M89.8025 25V6.925H96.04C97.2234 6.925 98.2317 7.0375 99.065 7.2625C99.9067 7.4875 100.594 7.80833 101.128 8.225C101.669 8.64167 102.065 9.14583 102.315 9.7375C102.565 10.3292 102.69 10.9958 102.69 11.7375C102.69 12.1625 102.628 12.5708 102.503 12.9625C102.378 13.3458 102.182 13.7083 101.915 14.05C101.657 14.3833 101.323 14.6875 100.915 14.9625C100.515 15.2375 100.036 15.4708 99.4775 15.6625C101.961 16.2208 103.203 17.5625 103.203 19.6875C103.203 20.4542 103.057 21.1625 102.765 21.8125C102.473 22.4625 102.048 23.025 101.49 23.5C100.932 23.9667 100.244 24.3333 99.4275 24.6C98.6109 24.8667 97.6775 25 96.6275 25H89.8025ZM93.165 17.075V22.375H96.5775C97.2025 22.375 97.7234 22.3 98.14 22.15C98.565 22 98.9025 21.8 99.1525 21.55C99.4109 21.3 99.5942 21.0083 99.7025 20.675C99.8192 20.3417 99.8775 19.9875 99.8775 19.6125C99.8775 19.2208 99.815 18.8708 99.69 18.5625C99.565 18.2458 99.3692 17.9792 99.1025 17.7625C98.8359 17.5375 98.4942 17.3667 98.0775 17.25C97.6609 17.1333 97.1567 17.075 96.565 17.075H93.165ZM93.165 14.75H95.8525C96.9942 14.75 97.8609 14.5417 98.4525 14.125C99.0442 13.7083 99.34 13.0458 99.34 12.1375C99.34 11.1958 99.0734 10.525 98.54 10.125C98.0067 9.725 97.1734 9.525 96.04 9.525H93.165V14.75ZM105.912 25V12.175H107.724C108.041 12.175 108.262 12.2333 108.387 12.35C108.512 12.4667 108.595 12.6667 108.637 12.95L108.824 14.5C109.283 13.7083 109.82 13.0833 110.437 12.625C111.053 12.1667 111.745 11.9375 112.512 11.9375C113.145 11.9375 113.67 12.0833 114.087 12.375L113.687 14.6875C113.662 14.8375 113.608 14.9458 113.524 15.0125C113.441 15.0708 113.328 15.1 113.187 15.1C113.062 15.1 112.891 15.0708 112.674 15.0125C112.458 14.9542 112.17 14.925 111.812 14.925C111.17 14.925 110.62 15.1042 110.162 15.4625C109.703 15.8125 109.316 16.3292 108.999 17.0125V25H105.912ZM119.404 12.175V25H116.317V12.175H119.404ZM119.867 8.4375C119.867 8.70417 119.813 8.95417 119.704 9.1875C119.596 9.42083 119.45 9.625 119.267 9.8C119.092 9.975 118.883 10.1167 118.642 10.225C118.4 10.325 118.142 10.375 117.867 10.375C117.6 10.375 117.346 10.325 117.104 10.225C116.871 10.1167 116.667 9.975 116.492 9.8C116.317 9.625 116.175 9.42083 116.067 9.1875C115.967 8.95417 115.917 8.70417 115.917 8.4375C115.917 8.1625 115.967 7.90417 116.067 7.6625C116.175 7.42083 116.317 7.2125 116.492 7.0375C116.667 6.8625 116.871 6.725 117.104 6.625C117.346 6.51667 117.6 6.4625 117.867 6.4625C118.142 6.4625 118.4 6.51667 118.642 6.625C118.883 6.725 119.092 6.8625 119.267 7.0375C119.45 7.2125 119.596 7.42083 119.704 7.6625C119.813 7.90417 119.867 8.1625 119.867 8.4375ZM125.941 18.3875L121.729 12.175H124.704C124.929 12.175 125.096 12.2083 125.204 12.275C125.312 12.3333 125.408 12.4333 125.491 12.575L128.179 16.8625C128.221 16.7208 128.271 16.5792 128.329 16.4375C128.396 16.2958 128.475 16.1542 128.566 16.0125L130.729 12.6375C130.829 12.4792 130.933 12.3625 131.041 12.2875C131.15 12.2125 131.283 12.175 131.441 12.175H134.279L130.054 18.25L134.454 25H131.479C131.254 25 131.071 24.9417 130.929 24.825C130.796 24.7083 130.683 24.575 130.591 24.425L127.866 19.9625C127.791 20.2625 127.687 20.5125 127.554 20.7125L125.154 24.425C125.062 24.5667 124.95 24.7 124.816 24.825C124.683 24.9417 124.516 25 124.316 25H121.554L125.941 18.3875Z" fill="#9D4437"/>
</svg>
