<svg width="24" height="25" viewBox="0 0 24 25" fill="none" xmlns="http://www.w3.org/2000/svg">
<path d="M14.5 18.4445C14.9167 18.4445 15.271 18.2985 15.563 18.0065C15.855 17.7145 16.0007 17.3605 16 16.9445C16 16.5278 15.854 16.1735 15.562 15.8815C15.27 15.5895 14.916 15.4438 14.5 15.4445C14.0833 15.4445 13.729 15.5905 13.437 15.8825C13.145 16.1745 12.9993 16.5285 13 16.9445C13 17.3611 13.146 17.7155 13.438 18.0075C13.73 18.2995 14.084 18.4451 14.5 18.4445ZM8.75 17.6945C8.95 17.8945 9.18333 17.9945 9.45 17.9945C9.71667 17.9945 9.95 17.8945 10.15 17.6945L15.25 12.5945C15.45 12.3945 15.55 12.1611 15.55 11.8945C15.55 11.6278 15.45 11.3945 15.25 11.1945C15.05 10.9945 14.8123 10.8945 14.537 10.8945C14.2617 10.8945 14.0243 10.9945 13.825 11.1945L8.75 16.2695C8.55 16.4695 8.45 16.7071 8.45 16.9825C8.45 17.2578 8.55 17.4951 8.75 17.6945ZM9.5 13.4445C9.91667 13.4445 10.271 13.2985 10.563 13.0065C10.855 12.7145 11.0007 12.3605 11 11.9445C11 11.5278 10.854 11.1735 10.562 10.8815C10.27 10.5895 9.916 10.4438 9.5 10.4445C9.08333 10.4445 8.729 10.5905 8.437 10.8825C8.145 11.1745 7.99933 11.5285 8 11.9445C8 12.3611 8.146 12.7155 8.438 13.0075C8.73 13.2995 9.084 13.4451 9.5 13.4445ZM12 22.4445C9.88333 22.4445 8.02067 21.7071 6.412 20.2325C4.80333 18.7578 3.99933 16.7618 4 14.2445C4 12.6611 4.6 10.9445 5.8 9.09447C7 7.24447 8.81667 5.24447 11.25 3.09447C11.35 3.01114 11.4667 2.94447 11.6 2.89447C11.7333 2.84447 11.8667 2.81947 12 2.81947C12.1333 2.81947 12.2667 2.84447 12.4 2.89447C12.5333 2.94447 12.65 3.01114 12.75 3.09447C15.1833 5.24447 17 7.24447 18.2 9.09447C19.4 10.9445 20 12.6611 20 14.2445C20 16.7611 19.1957 18.7571 17.587 20.2325C15.9783 21.7078 14.116 22.4451 12 22.4445ZM12 20.4445C13.6833 20.4445 15.1043 19.8695 16.263 18.7195C17.4217 17.5695 18.0007 16.0778 18 14.2445C18 13.0611 17.5083 11.7068 16.525 10.1815C15.5417 8.65614 14.0333 6.96047 12 5.09447C9.96667 6.96114 8.45833 8.65714 7.475 10.1825C6.49167 11.7078 6 13.0618 6 14.2445C6 16.0778 6.57933 17.5695 7.738 18.7195C8.89667 19.8695 10.3173 20.4445 12 20.4445Z" fill="#9D4437"/>
</svg>
