<svg width="32" height="32" viewBox="0 0 32 32" fill="none" xmlns="http://www.w3.org/2000/svg">
<path d="M16.0003 29.3333C8.63633 29.3333 2.66699 23.364 2.66699 16C2.66699 8.636 8.63633 2.66667 16.0003 2.66667C23.3643 2.66667 29.3337 8.636 29.3337 16C29.3337 23.364 23.3643 29.3333 16.0003 29.3333ZM16.0003 26.6667C18.8293 26.6667 21.5424 25.5429 23.5428 23.5425C25.5432 21.5421 26.667 18.829 26.667 16C26.667 13.171 25.5432 10.4579 23.5428 8.45753C21.5424 6.45714 18.8293 5.33334 16.0003 5.33334C13.1713 5.33334 10.4582 6.45714 8.45785 8.45753C6.45747 10.4579 5.33366 13.171 5.33366 16C5.33366 18.829 6.45747 21.5421 8.45785 23.5425C10.4582 25.5429 13.1713 26.6667 16.0003 26.6667ZM14.667 9.33334H17.3337V12H14.667V9.33334ZM14.667 14.6667H17.3337V22.6667H14.667V14.6667Z" fill="#FBFBFB"/>
</svg>
