<svg width="40" height="24" viewBox="0 0 40 24" fill="none" xmlns="http://www.w3.org/2000/svg">
<path d="M39.9999 14.7058C39.9999 13.6012 39.1044 12.7058 37.9999 12.7058H12.7041C11.5995 12.7058 10.7041 13.6012 10.7041 14.7058V21.9999C10.7041 23.1045 11.5995 23.9999 12.7041 23.9999H37.9999C39.1044 23.9999 39.9999 23.1045 39.9999 21.9999V14.7058Z" fill="#9D4437"/>
<path d="M0 14.7058C0 13.6012 0.895431 12.7058 2 12.7058H7.01409C8.11866 12.7058 9.01408 13.6012 9.01408 14.7058V18.3529V21.9999C9.01408 23.1045 8.11865 23.9999 7.01408 23.9999H2C0.895429 23.9999 0 23.1045 0 21.9999V14.7058Z" fill="#F1A238"/>
<path d="M30.9858 2C30.9858 0.895429 31.8813 0 32.9858 0H37.9999C39.1045 0 39.9999 0.89543 39.9999 2V5.64706V9.29412C39.9999 10.3987 39.1045 11.2941 37.9999 11.2941H32.9858C31.8813 11.2941 30.9858 10.3987 30.9858 9.29412V2Z" fill="#F1A238"/>
<path d="M29.2957 2C29.2957 0.895429 28.4002 0 27.2957 0H1.99989C0.895317 0 -0.000112534 0.895431 -0.000112534 2V9.29412C-0.000112534 10.3987 0.895317 11.2941 1.99989 11.2941H27.2957C28.4002 11.2941 29.2957 10.3987 29.2957 9.29412V2Z" fill="#7F7C7B"/>
</svg>
