<svg width="56" height="56" viewBox="0 0 56 56" fill="none" xmlns="http://www.w3.org/2000/svg">
<path d="M49.875 56C49.0702 56.0024 48.2731 55.8451 47.5296 55.5372C46.7861 55.2293 46.1111 54.7769 45.5437 54.2063L38.3197 46.9823C36.2697 47.4349 34.1345 47.3111 32.1506 46.6245C30.1667 45.9379 28.4117 44.7153 27.0801 43.0923C25.7485 41.4693 24.8923 39.5093 24.6065 37.4295C24.3206 35.3497 24.6163 33.2313 25.4607 31.3093L26.4897 28.9643L33.7627 36.2373C34.0958 36.5553 34.5386 36.7328 34.9991 36.7328C35.4596 36.7328 35.9024 36.5553 36.2354 36.2373C36.3982 36.075 36.5274 35.8823 36.6156 35.67C36.7038 35.4578 36.7493 35.2302 36.7494 35.0004C36.7496 34.7706 36.7044 34.543 36.6165 34.3306C36.5286 34.1182 36.3997 33.9253 36.2372 33.7628L28.9642 26.488L31.3092 25.459C33.2314 24.6152 35.3497 24.32 37.4294 24.6061C39.5091 24.8923 41.469 25.7487 43.0919 27.0803C44.7147 28.412 45.9372 30.167 46.6239 32.1508C47.3106 34.1346 47.4346 36.2698 46.9822 38.3198L54.2062 45.5438C55.0629 46.4004 55.6463 47.4918 55.8827 48.68C56.119 49.8682 55.9978 51.0998 55.5341 52.219C55.0705 53.3383 54.2854 54.2949 53.278 54.9679C52.2707 55.641 51.0864 56.0001 49.875 56ZM39.3224 43.0343L48.02 51.7318C48.5197 52.2089 49.184 52.4751 49.875 52.4751C50.5659 52.4751 51.2302 52.2089 51.7299 51.7318C51.974 51.4883 52.1677 51.199 52.2998 50.8806C52.432 50.5621 52.5 50.2207 52.5 49.8759C52.5 49.5311 52.432 49.1897 52.2998 48.8713C52.1677 48.5528 51.974 48.2635 51.7299 48.02L43.0342 39.3225L43.3632 38.3023C43.7476 37.1208 43.8467 35.8651 43.6525 34.6379C43.4582 33.4108 42.9761 32.247 42.2456 31.242C41.5151 30.237 40.557 29.4193 39.4497 28.8558C38.3424 28.2923 37.1174 27.999 35.875 28C35.728 28 35.5821 28.0041 35.4375 28.0123L38.7135 31.2883C39.6977 32.2728 40.2506 33.6079 40.2506 35C40.2506 36.3922 39.6977 37.7273 38.7135 38.7118C37.7133 39.6668 36.3837 40.1996 35.0008 40.1996C33.618 40.1996 32.2883 39.6668 31.2882 38.7118L28.0122 35.4358C28.004 35.5816 28 35.728 28 35.875C27.999 37.1177 28.2923 38.3429 28.8559 39.4504C29.4195 40.5579 30.2373 41.5163 31.2425 42.2469C32.2476 42.9776 33.4115 43.4598 34.6389 43.6541C35.8663 43.8485 37.1222 43.7494 38.304 43.365L39.3224 43.0343Z" fill="#C95842"/>
<path d="M43.75 8.75H38.5V7C38.4972 6.07259 38.1276 5.18396 37.4718 4.52819C36.816 3.87241 35.9274 3.50277 35 3.5H21C20.0726 3.50277 19.184 3.87241 18.5282 4.52819C17.8724 5.18396 17.5028 6.07259 17.5 7V8.75H12.25C11.3226 8.75277 10.434 9.12241 9.77819 9.77819C9.12241 10.434 8.75277 11.3226 8.75 12.25V49C8.75277 49.9274 9.12241 50.816 9.77819 51.4718C10.434 52.1276 11.3226 52.4972 12.25 52.5H24.5V49H12.25V12.25H17.5V17.5H38.5V12.25H43.75V21H47.25V12.25C47.2472 11.3226 46.8776 10.434 46.2218 9.77819C45.566 9.12241 44.6774 8.75277 43.75 8.75ZM35 14H21V7H35V14Z" fill="#C95842"/>
</svg>
