<svg width="16" height="16" viewBox="0 0 16 16" fill="none" xmlns="http://www.w3.org/2000/svg">
<path d="M14.25 16C14.0201 16.0007 13.7923 15.9557 13.5799 15.8678C13.3675 15.7798 13.1746 15.6505 13.0125 15.4875L10.9485 13.4235C10.3628 13.5528 9.75271 13.5175 9.18589 13.3213C8.61906 13.1251 8.11763 12.7758 7.73717 12.3121C7.35672 11.8484 7.1121 11.2884 7.03043 10.6941C6.94876 10.0999 7.03324 9.49467 7.27449 8.94551L7.56849 8.27551L9.64649 10.3535C9.74165 10.4444 9.86817 10.4951 9.99974 10.4951C10.1313 10.4951 10.2578 10.4444 10.353 10.3535C10.3995 10.3072 10.4364 10.2521 10.4616 10.1914C10.4868 10.1308 10.4998 10.0658 10.4998 10.0001C10.4999 9.93445 10.487 9.86942 10.4619 9.80874C10.4368 9.74807 10.3999 9.69294 10.3535 9.64651L8.27549 7.56801L8.9455 7.27401C9.4947 7.03291 10.0999 6.94856 10.6941 7.03032C11.2883 7.11209 11.8483 7.35676 12.312 7.73724C12.7756 8.11772 13.1249 8.61914 13.3211 9.18594C13.5173 9.75275 13.5527 10.3628 13.4235 10.9485L15.4875 13.0125C15.7323 13.2573 15.899 13.5691 15.9665 13.9086C16.034 14.2481 15.9994 14.5999 15.8669 14.9197C15.7344 15.2395 15.5101 15.5128 15.2223 15.7051C14.9345 15.8974 14.5961 16 14.25 16ZM11.235 12.2955L13.72 14.7805C13.8628 14.9168 14.0526 14.9929 14.25 14.9929C14.4474 14.9929 14.6372 14.9168 14.78 14.7805C14.8497 14.7109 14.9051 14.6283 14.9428 14.5373C14.9806 14.4463 15 14.3488 15 14.2503C15 14.1518 14.9806 14.0542 14.9428 13.9632C14.9051 13.8722 14.8497 13.7896 14.78 13.72L12.2955 11.235L12.3895 10.9435C12.4993 10.6059 12.5276 10.2472 12.4721 9.89655C12.4166 9.54593 12.2789 9.21344 12.0702 8.9263C11.8615 8.63915 11.5877 8.40552 11.2714 8.24452C10.955 8.08352 10.605 7.99973 10.25 8.00001C10.208 8.00001 10.1663 8.00118 10.125 8.00351L11.061 8.93951C11.3422 9.2208 11.5002 9.60227 11.5002 10C11.5002 10.3978 11.3422 10.7792 11.061 11.0605C10.7752 11.3334 10.3953 11.4856 10.0002 11.4856C9.60515 11.4856 9.22525 11.3334 8.93949 11.0605L8.00349 10.1245C8.00116 10.1662 7.99999 10.208 7.99999 10.25C7.99972 10.6051 8.08352 10.9551 8.24454 11.2716C8.40557 11.588 8.63924 11.8618 8.92643 12.0705C9.21362 12.2793 9.54616 12.4171 9.89684 12.4726C10.2475 12.5281 10.6064 12.4998 10.944 12.39L11.235 12.2955Z" fill="#FBFBFB"/>
<path d="M12.5 2.5H11V2C10.9992 1.73503 10.8936 1.48113 10.7062 1.29377C10.5189 1.1064 10.265 1.00079 10 1H6C5.73503 1.00079 5.48113 1.1064 5.29377 1.29377C5.1064 1.48113 5.00079 1.73503 5 2V2.5H3.5C3.23503 2.50079 2.98113 2.6064 2.79377 2.79377C2.6064 2.98113 2.50079 3.23503 2.5 3.5V14C2.50079 14.265 2.6064 14.5189 2.79377 14.7062C2.98113 14.8936 3.23503 14.9992 3.5 15H7V14H3.5V3.5H5V5H11V3.5H12.5V6H13.5V3.5C13.4992 3.23503 13.3936 2.98113 13.2062 2.79377C13.0189 2.6064 12.765 2.50079 12.5 2.5ZM10 4H6V2H10V4Z" fill="#FBFBFB"/>
</svg>
