<svg width="80" height="80" viewBox="0 0 80 80" fill="none" xmlns="http://www.w3.org/2000/svg">
<path d="M21.935 58.885L54.02 13.05C54.2035 12.7701 54.4413 12.53 54.7193 12.3437C54.9974 12.1574 55.31 12.0289 55.6386 11.9657C55.9672 11.9025 56.3052 11.9059 56.6325 11.9758C56.9598 12.0456 57.2697 12.1804 57.5439 12.3723C57.8181 12.5641 58.051 12.8091 58.2288 13.0926C58.4066 13.3761 58.5256 13.6924 58.5789 14.0228C58.6321 14.3532 58.6185 14.6909 58.5388 15.016C58.4592 15.341 58.315 15.6467 58.115 15.915L24.55 63.865C24.3581 64.1402 24.1127 64.3739 23.8285 64.5522C23.5443 64.7306 23.2272 64.8499 22.8959 64.9031C22.5647 64.9563 22.2261 64.9422 21.9004 64.8618C21.5747 64.7814 21.2685 64.6363 21 64.435L3.00001 50.935C2.73737 50.738 2.51609 50.4912 2.34882 50.2087C2.18156 49.9262 2.07157 49.6136 2.02514 49.2886C1.93137 48.6322 2.10219 47.9654 2.50001 47.435C2.89784 46.9046 3.49008 46.5539 4.14646 46.4601C4.80283 46.3664 5.46958 46.5372 6.00001 46.935L21.935 58.885ZM57.5 35C56.837 35 56.2011 34.7366 55.7322 34.2678C55.2634 33.7989 55 33.163 55 32.5C55 31.837 55.2634 31.2011 55.7322 30.7322C56.2011 30.2634 56.837 30 57.5 30H72.5C73.1631 30 73.7989 30.2634 74.2678 30.7322C74.7366 31.2011 75 31.837 75 32.5C75 33.163 74.7366 33.7989 74.2678 34.2678C73.7989 34.7366 73.1631 35 72.5 35H57.5ZM47.5 50C46.837 50 46.2011 49.7366 45.7322 49.2678C45.2634 48.7989 45 48.163 45 47.5C45 46.837 45.2634 46.2011 45.7322 45.7322C46.2011 45.2634 46.837 45 47.5 45H72.495C73.1581 45 73.7939 45.2634 74.2628 45.7322C74.7316 46.2011 74.995 46.837 74.995 47.5C74.995 48.163 74.7316 48.7989 74.2628 49.2678C73.7939 49.7366 73.1581 50 72.495 50H47.5ZM37.5 65C36.837 65 36.2011 64.7366 35.7322 64.2678C35.2634 63.7989 35 63.1631 35 62.5C35 61.837 35.2634 61.2011 35.7322 60.7322C36.2011 60.2634 36.837 60 37.5 60H72.495C73.1581 60 73.7939 60.2634 74.2628 60.7322C74.7316 61.2011 74.995 61.837 74.995 62.5C74.995 63.1631 74.7316 63.7989 74.2628 64.2678C73.7939 64.7366 73.1581 65 72.495 65H37.5Z" fill="#9D4437"/>
</svg>
