<svg width="81" height="80" viewBox="0 0 81 80" fill="none" xmlns="http://www.w3.org/2000/svg">
<path opacity="0.2" d="M55.5 27.5V52.5C55.5 53.163 55.2366 53.7989 54.7678 54.2678C54.2989 54.7366 53.663 55 53 55H28C27.337 55 26.7011 54.7366 26.2322 54.2678C25.7634 53.7989 25.5 53.163 25.5 52.5V27.5C25.5 26.837 25.7634 26.2011 26.2322 25.7322C26.7011 25.2634 27.337 25 28 25H53C53.663 25 54.2989 25.2634 54.7678 25.7322C55.2366 26.2011 55.5 26.837 55.5 27.5Z" fill="black"/>
<path d="M70.5 12.5V25C70.5 25.663 70.2366 26.2989 69.7678 26.7678C69.2989 27.2366 68.663 27.5 68 27.5C67.337 27.5 66.7011 27.2366 66.2322 26.7678C65.7634 26.2989 65.5 25.663 65.5 25V15H55.5C54.837 15 54.2011 14.7366 53.7322 14.2678C53.2634 13.7989 53 13.163 53 12.5C53 11.837 53.2634 11.2011 53.7322 10.7322C54.2011 10.2634 54.837 10 55.5 10H68C68.663 10 69.2989 10.2634 69.7678 10.7322C70.2366 11.2011 70.5 11.837 70.5 12.5ZM25.5 65H15.5V55C15.5 54.337 15.2366 53.7011 14.7678 53.2322C14.2989 52.7634 13.663 52.5 13 52.5C12.337 52.5 11.7011 52.7634 11.2322 53.2322C10.7634 53.7011 10.5 54.337 10.5 55V67.5C10.5 68.163 10.7634 68.7989 11.2322 69.2678C11.7011 69.7366 12.337 70 13 70H25.5C26.163 70 26.7989 69.7366 27.2678 69.2678C27.7366 68.7989 28 68.163 28 67.5C28 66.837 27.7366 66.2011 27.2678 65.7322C26.7989 65.2634 26.163 65 25.5 65ZM68 52.5C67.337 52.5 66.7011 52.7634 66.2322 53.2322C65.7634 53.7011 65.5 54.337 65.5 55V65H55.5C54.837 65 54.2011 65.2634 53.7322 65.7322C53.2634 66.2011 53 66.837 53 67.5C53 68.163 53.2634 68.7989 53.7322 69.2678C54.2011 69.7366 54.837 70 55.5 70H68C68.663 70 69.2989 69.7366 69.7678 69.2678C70.2366 68.7989 70.5 68.163 70.5 67.5V55C70.5 54.337 70.2366 53.7011 69.7678 53.2322C69.2989 52.7634 68.663 52.5 68 52.5ZM13 27.5C13.663 27.5 14.2989 27.2366 14.7678 26.7678C15.2366 26.2989 15.5 25.663 15.5 25V15H25.5C26.163 15 26.7989 14.7366 27.2678 14.2678C27.7366 13.7989 28 13.163 28 12.5C28 11.837 27.7366 11.2011 27.2678 10.7322C26.7989 10.2634 26.163 10 25.5 10H13C12.337 10 11.7011 10.2634 11.2322 10.7322C10.7634 11.2011 10.5 11.837 10.5 12.5V25C10.5 25.663 10.7634 26.2989 11.2322 26.7678C11.7011 27.2366 12.337 27.5 13 27.5ZM53 57.5H28C26.6739 57.5 25.4021 56.9732 24.4645 56.0355C23.5268 55.0979 23 53.8261 23 52.5V27.5C23 26.1739 23.5268 24.9021 24.4645 23.9645C25.4021 23.0268 26.6739 22.5 28 22.5H53C54.3261 22.5 55.5979 23.0268 56.5355 23.9645C57.4732 24.9021 58 26.1739 58 27.5V52.5C58 53.8261 57.4732 55.0979 56.5355 56.0355C55.5979 56.9732 54.3261 57.5 53 57.5ZM28 52.5H53V27.5H28V52.5Z" fill="black"/>
</svg>
