<svg width="64" height="56" viewBox="0 0 64 56" fill="none" xmlns="http://www.w3.org/2000/svg">
<path d="M58.6225 24.2966L22.6025 5.01812C21.8471 4.61518 20.9831 4.39482 20.0986 4.37955C19.214 4.36427 18.3407 4.55461 17.5677 4.93115C16.7948 5.3077 16.1498 5.85695 15.6987 6.52286C15.2476 7.18876 15.0065 7.94748 15 8.72156V47.2784C15.0065 48.0525 15.2476 48.8112 15.6987 49.4771C16.1498 50.143 16.7948 50.6923 17.5677 51.0688C18.3407 51.4454 19.214 51.6357 20.0986 51.6204C20.9831 51.6052 21.8471 51.3848 22.6025 50.9819L58.6225 31.7034C59.3488 31.3166 59.9491 30.7727 60.3657 30.1241C60.7823 29.4755 61.0011 28.744 61.0011 28C61.0011 27.256 60.7823 26.5245 60.3657 25.8759C59.9491 25.2273 59.3488 24.6834 58.6225 24.2966ZM21 45.6859V10.3141L54.04 28L21 45.6859Z" fill="#C95842"/>
</svg>
