<svg width="64" height="56" viewBox="0 0 64 56" fill="none" xmlns="http://www.w3.org/2000/svg">
<path d="M50.1825 7.875H13.8175C12.5404 7.87674 11.3162 8.32141 10.4132 9.11155C9.51018 9.9017 9.00198 10.9729 9 12.0903V43.9097C9.00198 45.0271 9.51018 46.0983 10.4132 46.8884C11.3162 47.6786 12.5404 48.1233 13.8175 48.125H50.1825C51.4596 48.1233 52.6838 47.6786 53.5868 46.8884C54.4898 46.0983 54.998 45.0271 55 43.9097V12.0903C54.998 10.9729 54.4898 9.9017 53.5868 9.11155C52.6838 8.32141 51.4596 7.87674 50.1825 7.875ZM49 42.875H15V13.125H49V42.875Z" fill="#C95842"/>
</svg>
