<svg width="40" height="64" viewBox="0 0 40 64" fill="none" xmlns="http://www.w3.org/2000/svg">
<path d="M18 8C14.6875 8 12 10.6875 12 14V34.5625C12 36.725 11.1125 38.55 10.0875 39.875C8.775 41.575 8 43.6875 8 46C8 51.525 12.475 56 18 56C23.525 56 28 51.525 28 46C28 43.6875 27.225 41.575 25.9125 39.8875C24.8875 38.5625 24 36.7375 24 34.575V14C24 10.6875 21.3125 8 18 8ZM4 14C4 6.275 10.2625 0 18 0C25.7375 0 32 6.2625 32 14V34.5625C32 34.575 32.0125 34.6 32.025 34.6375C32.05 34.7125 32.125 34.8375 32.2375 34.9875C34.6 38.0375 36 41.8625 36 46C36 55.9375 27.9375 64 18 64C8.0625 64 0 55.9375 0 46C0 41.85 1.4 38.025 3.7625 34.9875C3.875 34.8375 3.95 34.7125 3.975 34.6375C3.9875 34.6 4 34.575 4 34.5625V14ZM24 46C24 49.3125 21.3125 52 18 52C14.6875 52 12 49.3125 12 46C12 43.3875 13.675 41.1625 16 40.3375V18C16 16.9 16.9 16 18 16C19.1 16 20 16.9 20 18V40.3375C22.325 41.1625 24 43.3875 24 46Z" fill="#FBFBFB"/>
</svg>
