<svg width="49" height="56" viewBox="0 0 49 56" fill="none" xmlns="http://www.w3.org/2000/svg">
<path d="M48.0026 16.8405L0.997314 25.76V40.8831H1.00265C0.986648 41.1149 1.17465 41.342 1.59331 41.6189C2.56265 42.2598 14.7066 49.8416 15.664 50.3907C16.8573 51.0736 17.5853 51.1576 18.6053 50.5649C19.44 50.0796 44.2533 34.7402 46.5146 33.3387C47.6653 32.6247 48.0426 32.2327 47.98 31.9091H48.004L48.0026 16.8405Z" fill="#C1694F"/>
<path d="M0.997314 25.76V40.8831H1.00265C0.986648 41.1149 1.17465 41.342 1.59331 41.6189C2.56265 42.2598 14.7066 49.8416 15.664 50.3907C16.24 50.7205 16.7053 50.9025 17.1493 50.9445V25.76H0.997314Z" fill="#A0041E"/>
<path d="M30.132 7.28306C31.5667 6.41506 31.616 6.30617 33.1307 7.24572C34.6454 8.18528 46.2587 15.4093 47.1133 15.9397C48.1987 16.6148 48.596 16.8591 46.5147 18.1502C44.2534 19.5533 19.44 34.8926 18.6054 35.3764C17.5854 35.9691 16.8574 35.8851 15.664 35.2022C14.7067 34.6546 2.56268 27.0728 1.59335 26.4304C0.500018 25.7071 0.950684 25.3322 2.61868 24.2993L30.132 7.28306Z" fill="#D99E82"/>
<path d="M15.4186 29.6038C18.1278 29.6038 20.324 28.3224 20.324 26.7416C20.324 25.1609 18.1278 23.8794 15.4186 23.8794C12.7095 23.8794 10.5133 25.1609 10.5133 26.7416C10.5133 28.3224 12.7095 29.6038 15.4186 29.6038Z" fill="#C1694F"/>
<path d="M16.0226 26.0307C13.9306 25.228 11.5533 25.4567 10.5453 26.558C10.5386 26.6202 10.5133 26.6794 10.5133 26.7416C10.5133 28.322 12.7093 29.6038 15.4186 29.6038C16.836 29.6038 18.1026 29.2476 18.9973 28.6876C18.5533 27.6111 17.5493 26.6156 16.0226 26.0307Z" fill="#A0041E"/>
<path d="M24.5001 24.0784C27.2092 24.0784 29.4054 22.797 29.4054 21.2162C29.4054 19.6355 27.2092 18.354 24.5001 18.354C21.7909 18.354 19.5947 19.6355 19.5947 21.2162C19.5947 22.797 21.7909 24.0784 24.5001 24.0784Z" fill="#C1694F"/>
<path d="M25.1041 20.5053C23.0121 19.7026 20.6347 19.9313 19.6267 21.0326C19.6201 21.0949 19.5947 21.154 19.5947 21.2162C19.5947 22.7966 21.7907 24.0784 24.5001 24.0784C25.9174 24.0784 27.1841 23.7222 28.0787 23.1622C27.6347 22.0857 26.6307 21.0902 25.1041 20.5053Z" fill="#A0041E"/>
<path d="M33.5814 18.5531C36.2905 18.5531 38.4867 17.2716 38.4867 15.6908C38.4867 14.1101 36.2905 12.8286 33.5814 12.8286C30.8722 12.8286 28.676 14.1101 28.676 15.6908C28.676 17.2716 30.8722 18.5531 33.5814 18.5531Z" fill="#C1694F"/>
<path d="M34.1854 14.98C32.0934 14.1774 29.716 14.406 28.708 15.5074C28.7014 15.5696 28.676 15.6287 28.676 15.6909C28.676 17.2714 30.872 18.5531 33.5814 18.5531C34.9987 18.5531 36.264 18.1969 37.16 17.6369C36.716 16.5605 35.712 15.5649 34.1854 14.98Z" fill="#A0041E"/>
</svg>
