<svg width="25" height="25" viewBox="0 0 25 25" fill="none" xmlns="http://www.w3.org/2000/svg">
<path d="M3.5 15.4445H13.5C13.7652 15.4445 14.0196 15.5498 14.2071 15.7373C14.3946 15.9249 14.5 16.1792 14.5 16.4445C14.5 16.7097 14.3946 16.964 14.2071 17.1516C14.0196 17.3391 13.7652 17.4445 13.5 17.4445H3.5C3.23478 17.4445 2.98043 17.3391 2.79289 17.1516C2.60536 16.964 2.5 16.7097 2.5 16.4445C2.5 16.1792 2.60536 15.9249 2.79289 15.7373C2.98043 15.5498 3.23478 15.4445 3.5 15.4445ZM16.5 15.4445H21.5C21.7652 15.4445 22.0196 15.5498 22.2071 15.7373C22.3946 15.9249 22.5 16.1792 22.5 16.4445C22.5 16.7097 22.3946 16.964 22.2071 17.1516C22.0196 17.3391 21.7652 17.4445 21.5 17.4445H16.5C16.2348 17.4445 15.9804 17.3391 15.7929 17.1516C15.6054 16.964 15.5 16.7097 15.5 16.4445C15.5 16.1792 15.6054 15.9249 15.7929 15.7373C15.9804 15.5498 16.2348 15.4445 16.5 15.4445ZM1.5 12.4445C1.5 11.1184 2.02678 9.8466 2.96447 8.90892C3.90215 7.97123 5.17392 7.44445 6.5 7.44445C7.5 5.09445 9.8 3.44445 12.5 3.44445C15.93 3.44445 18.74 6.10445 19 9.47445L19.5 9.44445C21.69 9.44445 23.47 11.2045 23.5 13.4445H21.5C21.5 12.914 21.2893 12.4053 20.9142 12.0302C20.5391 11.6552 20.0304 11.4445 19.5 11.4445H17.5V10.4445C17.5 9.11837 16.9732 7.8466 16.0355 6.90892C15.0979 5.97123 13.8261 5.44445 12.5 5.44445C10 5.44445 7.95 7.26445 7.56 9.63445C7.23 9.51445 6.87 9.44445 6.5 9.44445C5.70435 9.44445 4.94129 9.76052 4.37868 10.3231C3.81607 10.8857 3.5 11.6488 3.5 12.4445C3.49949 12.785 3.55698 13.1232 3.67 13.4445H1.6L1.5 12.4445ZM3.5 19.4445H5.5C5.76522 19.4445 6.01957 19.5498 6.20711 19.7373C6.39464 19.9249 6.5 20.1792 6.5 20.4445C6.5 20.7097 6.39464 20.964 6.20711 21.1516C6.01957 21.3391 5.76522 21.4445 5.5 21.4445H3.5C3.23478 21.4445 2.98043 21.3391 2.79289 21.1516C2.60536 20.964 2.5 20.7097 2.5 20.4445C2.5 20.1792 2.60536 19.9249 2.79289 19.7373C2.98043 19.5498 3.23478 19.4445 3.5 19.4445ZM8.5 19.4445H21.5C21.7652 19.4445 22.0196 19.5498 22.2071 19.7373C22.3946 19.9249 22.5 20.1792 22.5 20.4445C22.5 20.7097 22.3946 20.964 22.2071 21.1516C22.0196 21.3391 21.7652 21.4445 21.5 21.4445H8.5C8.23478 21.4445 7.98043 21.3391 7.79289 21.1516C7.60536 20.964 7.5 20.7097 7.5 20.4445C7.5 20.1792 7.60536 19.9249 7.79289 19.7373C7.98043 19.5498 8.23478 19.4445 8.5 19.4445Z" fill="#9D4437"/>
</svg>
