<svg width="32" height="32" viewBox="0 0 32 32" fill="none" xmlns="http://www.w3.org/2000/svg">
<path d="M19.3333 4.00001L18 8L16.6667 4.00001C16.5971 3.78909 16.5786 3.56467 16.6126 3.3452C16.6466 3.12572 16.7322 2.91745 16.8623 2.73748C16.9925 2.55751 17.1634 2.41098 17.3612 2.30993C17.559 2.20888 17.7779 2.15619 18 2.15619C18.2221 2.15619 18.441 2.20888 18.6388 2.30993C18.8366 2.41098 19.0076 2.55751 19.1377 2.73748C19.2679 2.91745 19.3534 3.12572 19.3875 3.3452C19.4215 3.56467 19.4029 3.78909 19.3333 4.00001ZM26.4853 8.06667L22.7133 9.95334L24.6 6.18134C24.7746 5.86167 25.0664 5.6222 25.414 5.5133C25.7616 5.40441 26.1378 5.43458 26.4636 5.59747C26.7894 5.76036 27.0393 6.04328 27.1607 6.38668C27.2822 6.73008 27.2656 7.10719 27.1147 7.43867C26.9784 7.71059 26.7576 7.93096 26.4853 8.06667ZM28.6667 16L24.6667 14.6667L28.6667 13.3333C28.8779 13.263 29.1028 13.2438 29.3229 13.2775C29.543 13.3111 29.752 13.3965 29.9326 13.5267C30.1132 13.6569 30.2603 13.8282 30.3617 14.0264C30.4632 14.2246 30.5161 14.444 30.5161 14.6667C30.5161 14.8893 30.4632 15.1088 30.3617 15.307C30.2603 15.5052 30.1132 15.6764 29.9326 15.8066C29.752 15.9368 29.543 16.0223 29.3229 16.0559C29.1028 16.0895 28.8779 16.0704 28.6667 16ZM11.4 6.18134L13.2867 9.95334L9.51468 8.06667C9.3147 7.96744 9.14121 7.82203 9.00855 7.64246C8.8759 7.4629 8.78789 7.25435 8.75179 7.03404C8.7157 6.81372 8.73256 6.58799 8.80099 6.37548C8.86941 6.16298 8.98743 5.96981 9.14529 5.81195C9.30315 5.65409 9.49632 5.53607 9.70882 5.46765C9.92133 5.39923 10.1471 5.38236 10.3674 5.41846C10.5877 5.45455 10.7962 5.54256 10.9758 5.67522C11.1554 5.80787 11.3008 5.98136 11.4 6.18134ZM23.7013 16.456C23.8867 15.8907 24 15.2947 24 14.6667C24 11.3587 21.308 8.66667 18 8.66667C16.2133 8.66667 14.6173 9.45867 13.524 10.704L13.3333 10.6667C12.2071 10.6674 11.0938 10.9068 10.0667 11.3689C9.03967 11.8311 8.12218 12.5056 7.37468 13.348C7.12627 13.2563 6.85701 13.2366 6.59792 13.2913C6.33882 13.3459 6.10044 13.4726 5.91023 13.6569C5.72002 13.8411 5.58572 14.0753 5.52282 14.3325C5.45991 14.5897 5.47096 14.8595 5.55468 15.1107C5.63068 15.3333 5.76534 15.5093 5.92401 15.6587C5.53455 16.6137 5.33396 17.6353 5.33334 18.6667L5.33601 18.8347C4.19125 19.1313 3.17725 19.7993 2.4529 20.734C1.72855 21.6688 1.3348 22.8174 1.33334 24C1.33334 26.9413 3.72668 29.3333 6.66668 29.3333H21.3333C25.0093 29.3333 28 26.3427 28 22.6667C28 19.828 26.208 17.4147 23.7013 16.456ZM18 11.3333C19.8387 11.3333 21.3333 12.828 21.3333 14.6667C21.3333 15.1547 21.2053 15.608 21.016 16.0253C20.544 16.0533 20.056 16.124 19.5253 16.276C19.1825 15.3843 18.6517 14.5769 17.9691 13.9086C17.2865 13.2403 16.468 12.7267 15.5693 12.4027C15.8788 12.0664 16.2546 11.7979 16.6729 11.6138C17.0912 11.4298 17.543 11.3343 18 11.3333ZM21.3333 26.6667H6.66668C5.19468 26.6667 4.00001 25.4707 4.00001 24C4.00001 22.5293 5.19468 21.3333 6.54401 21.3253L8.44001 21.3467L8.10934 19.744C7.95066 18.9686 7.96631 18.1677 8.15516 17.3991C8.34402 16.6305 8.70135 15.9135 9.20131 15.3C9.70127 14.6865 10.3314 14.1918 11.046 13.8516C11.7606 13.5115 12.5419 13.3345 13.3333 13.3333L13.4253 13.3147C14.6504 13.344 15.8282 13.793 16.7619 14.5866C17.6955 15.3803 18.3284 16.4704 18.5547 17.6747L18.6053 17.9227C18.6843 18.1963 18.85 18.4368 19.0775 18.608C19.305 18.7792 19.5819 18.8719 19.8667 18.872L20.252 18.8413C20.668 18.7213 21.0107 18.6667 21.3333 18.6667C23.5387 18.6667 25.3333 20.4613 25.3333 22.6667C25.3333 24.872 23.5387 26.6667 21.3333 26.6667Z" fill="#FBFBFB"/>
</svg>
