<svg width="24" height="25" viewBox="0 0 24 25" fill="none" xmlns="http://www.w3.org/2000/svg">
<path d="M17.0625 17.6945C17.0625 18.4404 16.7662 19.1558 16.2387 19.6832C15.7113 20.2107 14.9959 20.507 14.25 20.507C13.0406 20.507 11.8725 19.7213 11.4722 18.6395C11.4205 18.4995 11.4265 18.3447 11.4889 18.2091C11.5513 18.0736 11.665 17.9684 11.805 17.9167C11.945 17.8649 12.0998 17.871 12.2353 17.9334C12.3709 17.9958 12.4761 18.1095 12.5278 18.2495C12.7622 18.8842 13.5188 19.382 14.25 19.382C14.6976 19.382 15.1268 19.2042 15.4432 18.8877C15.7597 18.5712 15.9375 18.142 15.9375 17.6945C15.9375 17.2469 15.7597 16.8177 15.4432 16.5012C15.1268 16.1848 14.6976 16.007 14.25 16.007H3.75C3.60082 16.007 3.45774 15.9477 3.35225 15.8422C3.24676 15.7367 3.1875 15.5937 3.1875 15.4445C3.1875 15.2953 3.24676 15.1522 3.35225 15.0467C3.45774 14.9412 3.60082 14.882 3.75 14.882H14.25C14.9959 14.882 15.7113 15.1783 16.2387 15.7057C16.7662 16.2332 17.0625 16.9486 17.0625 17.6945ZM14.0625 7.19447C14.0625 6.44855 13.7662 5.73318 13.2387 5.20574C12.7113 4.67829 11.9959 4.38197 11.25 4.38197C10.0406 4.38197 8.8725 5.1676 8.47219 6.24947C8.42047 6.38946 8.42648 6.54425 8.48889 6.67981C8.55131 6.81536 8.66502 6.92057 8.805 6.97229C8.94498 7.024 9.09978 7.01799 9.23533 6.95558C9.37089 6.89316 9.4761 6.77946 9.52781 6.63947C9.76219 6.00479 10.5188 5.50697 11.25 5.50697C11.6976 5.50697 12.1268 5.68476 12.4432 6.00123C12.7597 6.3177 12.9375 6.74692 12.9375 7.19447C12.9375 7.64203 12.7597 8.07125 12.4432 8.38772C12.1268 8.70418 11.6976 8.88197 11.25 8.88197H2.25C2.10082 8.88197 1.95774 8.94124 1.85225 9.04673C1.74676 9.15222 1.6875 9.29529 1.6875 9.44447C1.6875 9.59366 1.74676 9.73673 1.85225 9.84222C1.95774 9.94771 2.10082 10.007 2.25 10.007H11.25C11.9959 10.007 12.7113 9.71066 13.2387 9.18321C13.7662 8.65577 14.0625 7.94039 14.0625 7.19447ZM19.5 7.38197C18.2906 7.38197 17.1225 8.1676 16.7222 9.24947C16.6966 9.31879 16.6849 9.39247 16.6877 9.4663C16.6906 9.54014 16.708 9.61269 16.7389 9.67981C16.7698 9.74693 16.8136 9.8073 16.8679 9.85748C16.9221 9.90767 16.9857 9.94668 17.055 9.97229C17.1243 9.99789 17.198 10.0096 17.2718 10.0067C17.3457 10.0039 17.4182 9.98648 17.4853 9.95558C17.5525 9.92467 17.6128 9.88085 17.663 9.82662C17.7132 9.77238 17.7522 9.70879 17.7778 9.63947C18.0122 9.00479 18.7687 8.50697 19.5 8.50697C19.9476 8.50697 20.3768 8.68476 20.6932 9.00123C21.0097 9.3177 21.1875 9.74692 21.1875 10.1945C21.1875 10.642 21.0097 11.0712 20.6932 11.3877C20.3768 11.7042 19.9476 11.882 19.5 11.882H3C2.85082 11.882 2.70774 11.9412 2.60225 12.0467C2.49676 12.1522 2.4375 12.2953 2.4375 12.4445C2.4375 12.5937 2.49676 12.7367 2.60225 12.8422C2.70774 12.9477 2.85082 13.007 3 13.007H19.5C20.2459 13.007 20.9613 12.7107 21.4887 12.1832C22.0162 11.6558 22.3125 10.9404 22.3125 10.1945C22.3125 9.44855 22.0162 8.73318 21.4887 8.20574C20.9613 7.67829 20.2459 7.38197 19.5 7.38197Z" fill="#9D4437"/>
</svg>
