<svg width="320" height="320" viewBox="0 0 320 320" fill="none" xmlns="http://www.w3.org/2000/svg">
<g opacity="0.24">
<circle cx="160" cy="160" r="160" fill="#FBFBFB"/>
<path d="M274.285 166.033C274.285 164.929 273.39 164.033 272.285 164.033H108.881C107.776 164.033 106.881 164.929 106.881 166.033V226.571C106.881 227.676 107.776 228.571 108.881 228.571H272.285C273.39 228.571 274.285 227.676 274.285 226.571V166.033Z" fill="#9D4437"/>
<path d="M45.7139 166.033C45.7139 164.929 46.6093 164.033 47.7139 164.033H95.2229C96.3275 164.033 97.2229 164.929 97.2229 166.033V196.302V226.571C97.2229 227.676 96.3275 228.571 95.2229 228.571H47.7139C46.6093 228.571 45.7139 227.676 45.7139 226.571V166.033Z" fill="#F1A238"/>
<path d="M222.776 93.4287C222.776 92.3241 223.671 91.4287 224.776 91.4287H272.285C273.389 91.4287 274.285 92.3241 274.285 93.4287V123.698V153.967C274.285 155.071 273.389 155.967 272.285 155.967H224.776C223.671 155.967 222.776 155.071 222.776 153.967V93.4287Z" fill="#F1A238"/>
<path d="M213.118 93.4287C213.118 92.3241 212.223 91.4287 211.118 91.4287H47.7137C46.6091 91.4287 45.7137 92.3241 45.7137 93.4287V153.967C45.7137 155.071 46.6091 155.967 47.7137 155.967H211.118C212.223 155.967 213.118 155.071 213.118 153.967V93.4287Z" fill="#7F7C7B"/>
</g>
</svg>
